<svg width="86" height="21" viewBox="0 0 86 21" fill="none" xmlns="http://www.w3.org/2000/svg">
<path d="M16.5273 10.1973C16.5273 11.0996 16.4089 11.9701 16.1719 12.8086C15.944 13.638 15.6159 14.4173 15.1875 15.1465C14.7591 15.8665 14.2487 16.5273 13.6562 17.1289C13.0638 17.7214 12.403 18.2318 11.6738 18.6602C10.9447 19.0885 10.1608 19.4212 9.32227 19.6582C8.49284 19.8861 7.62695 20 6.72461 20H0.818359V0.394531H6.72461C7.62695 0.394531 8.49284 0.513021 9.32227 0.75C10.1608 0.977865 10.9447 1.30599 11.6738 1.73438C12.403 2.16276 13.0638 2.67773 13.6562 3.2793C14.2487 3.87174 14.7591 4.53255 15.1875 5.26172C15.6159 5.98177 15.944 6.76107 16.1719 7.59961C16.4089 8.42904 16.5273 9.29492 16.5273 10.1973ZM12.6035 10.1973C12.6035 9.38607 12.4486 8.625 12.1387 7.91406C11.8379 7.20312 11.4186 6.58333 10.8809 6.05469C10.3522 5.51693 9.72786 5.0931 9.00781 4.7832C8.29688 4.47331 7.53581 4.31836 6.72461 4.31836H4.76953V16.0762H6.72461C7.53581 16.0762 8.29688 15.9258 9.00781 15.625C9.72786 15.3151 10.3522 14.8958 10.8809 14.3672C11.4186 13.8294 11.8379 13.2051 12.1387 12.4941C12.4486 11.7741 12.6035 11.0085 12.6035 10.1973ZM35.3781 20H21.9387V0.394531H35.3781V4.31836H25.8625V8.24219H32.302V12.166H25.8625V16.0762H35.3781V20ZM60.3812 20H56.4711V6C56.4711 5.72656 56.4164 5.47135 56.307 5.23438C56.2068 4.9974 56.0655 4.79232 55.8832 4.61914C55.71 4.43685 55.5049 4.29557 55.268 4.19531C55.031 4.09505 54.7758 4.04492 54.5023 4.04492C54.2289 4.04492 53.9737 4.09505 53.7367 4.19531C53.4997 4.29557 53.2901 4.43685 53.1078 4.61914C52.9346 4.79232 52.7979 4.9974 52.6977 5.23438C52.5974 5.47135 52.5473 5.72656 52.5473 6V20H48.6234V6C48.6234 5.72656 48.5733 5.47135 48.473 5.23438C48.3728 4.9974 48.2315 4.79232 48.0492 4.61914C47.876 4.43685 47.671 4.29557 47.434 4.19531C47.197 4.09505 46.9418 4.04492 46.6684 4.04492C46.3949 4.04492 46.1397 4.09505 45.9027 4.19531C45.6658 4.29557 45.4561 4.43685 45.2738 4.61914C45.1006 4.79232 44.9639 4.9974 44.8637 5.23438C44.7634 5.47135 44.7133 5.72656 44.7133 6V20H40.7895V6C40.7895 5.1888 40.9398 4.42773 41.2406 3.7168C41.5505 2.99674 41.9698 2.3724 42.4984 1.84375C43.0362 1.30599 43.6605 0.886719 44.3715 0.585938C45.0915 0.276042 45.8572 0.121094 46.6684 0.121094C47.3975 0.121094 48.0993 0.253255 48.7738 0.517578C49.4483 0.772786 50.0544 1.14648 50.5922 1.63867C51.1299 1.14648 51.7315 0.772786 52.3969 0.517578C53.0714 0.253255 53.7732 0.121094 54.5023 0.121094C55.3135 0.121094 56.0746 0.276042 56.7855 0.585938C57.5056 0.886719 58.1299 1.30599 58.6586 1.84375C59.1964 2.3724 59.6156 2.99674 59.9164 3.7168C60.2263 4.42773 60.3812 5.1888 60.3812 6V20ZM85.9039 10.2793C85.9039 11.209 85.7809 12.1068 85.5348 12.9727C85.2978 13.8294 84.9605 14.6361 84.523 15.3926C84.0855 16.14 83.5569 16.8236 82.9371 17.4434C82.3173 18.0632 81.6337 18.5964 80.8863 19.043C80.1389 19.4805 79.3323 19.8177 78.4664 20.0547C77.6005 20.3008 76.7027 20.4238 75.773 20.4238C74.8434 20.4238 73.9456 20.3008 73.0797 20.0547C72.2229 19.8177 71.4163 19.4805 70.6598 19.043C69.9124 18.5964 69.2288 18.0632 68.609 17.4434C67.9892 16.8236 67.456 16.14 67.0094 15.3926C66.5719 14.6361 66.2301 13.8294 65.984 12.9727C65.747 12.1068 65.6285 11.209 65.6285 10.2793C65.6285 9.34961 65.747 8.45182 65.984 7.58594C66.2301 6.72005 66.5719 5.91341 67.0094 5.16602C67.456 4.41862 67.9892 3.73503 68.609 3.11523C69.2288 2.49544 69.9124 1.9668 70.6598 1.5293C71.4163 1.0918 72.2229 0.754557 73.0797 0.517578C73.9456 0.271484 74.8434 0.148438 75.773 0.148438C76.7027 0.148438 77.6005 0.271484 78.4664 0.517578C79.3323 0.754557 80.1389 1.0918 80.8863 1.5293C81.6337 1.9668 82.3173 2.49544 82.9371 3.11523C83.5569 3.73503 84.0855 4.41862 84.523 5.16602C84.9605 5.91341 85.2978 6.72005 85.5348 7.58594C85.7809 8.45182 85.9039 9.34961 85.9039 10.2793ZM82.0074 10.2793C82.0074 9.42253 81.8434 8.61589 81.5152 7.85938C81.1871 7.09375 80.7405 6.43294 80.1754 5.87695C79.6194 5.31185 78.9586 4.86523 78.193 4.53711C77.4365 4.20898 76.6298 4.04492 75.773 4.04492C74.9072 4.04492 74.096 4.20898 73.3395 4.53711C72.5829 4.86523 71.9221 5.31185 71.357 5.87695C70.7919 6.43294 70.3453 7.09375 70.0172 7.85938C69.6891 8.61589 69.525 9.42253 69.525 10.2793C69.525 11.1361 69.6891 11.9427 70.0172 12.6992C70.3453 13.4466 70.7919 14.1029 71.357 14.668C71.9221 15.2331 72.5829 15.6797 73.3395 16.0078C74.096 16.3359 74.9072 16.5 75.773 16.5C76.6298 16.5 77.4365 16.3359 78.193 16.0078C78.9586 15.6797 79.6194 15.2331 80.1754 14.668C80.7405 14.1029 81.1871 13.4466 81.5152 12.6992C81.8434 11.9427 82.0074 11.1361 82.0074 10.2793Z" fill="url(#paint0_linear_2_2836)"/>
<defs>
<linearGradient id="paint0_linear_2_2836" x1="-1" y1="10" x2="87" y2="10" gradientUnits="userSpaceOnUse">
<stop stop-color="#35A6D6"/>
<stop offset="1" stop-color="#435B83"/>
</linearGradient>
</defs>
</svg>
